<svg width="226" height="52" viewBox="0 0 226 52" fill="none" xmlns="http://www.w3.org/2000/svg">
<path d="M40.6386 34.9493V34.3641C40.3135 23.4079 31.3405 21.5873 26.6264 19.7342C21.8148 17.8485 16.7106 17.7185 16.7106 15.0526C16.7106 12.3867 23.8305 12.4517 23.8305 12.4517H32.9661L34.429 8.35534L37.29 0.32515H20.807C7.54253 0.35766 3.67373 10.1434 3.67373 10.1434C2.66589 12.2892 2.17823 15.4752 2.17823 18.3037C2.17823 18.3037 2.47083 26.2038 9.49318 28.8047C11.0862 29.6825 12.6142 30.1702 14.825 30.9504C16.3205 31.4706 17.751 31.9257 19.0839 32.3159C19.0839 32.3159 27.0491 34.039 25.9437 36.6398C23.4404 42.3943 11.0537 36.0546 11.0537 36.0546C9.26561 35.2419 7.57504 34.299 5.91698 33.2587L0 45.5478C1.4955 46.4581 3.12105 47.2709 4.87664 47.9861C6.63222 48.7014 8.45283 49.3191 10.3385 49.8718C12.2241 50.3919 14.1422 50.8146 16.0604 51.1072C17.9785 51.3998 19.8642 51.5298 21.6848 51.5298C23.5054 51.5298 26.2688 51.2372 28.5446 50.717C30.8203 50.1644 32.836 49.2541 34.6566 48.0186C36.4447 46.7832 37.9077 45.0927 39.0131 43.012C40.1185 40.9313 40.6711 38.3304 40.6711 35.2744C40.6711 32.2183 40.6711 35.0793 40.6711 34.9818L40.6386 34.9493Z" fill="white"/>
<path d="M77.017 11.2491C78.0899 9.39595 79.3578 7.67287 80.7883 6.14486C82.999 3.77156 85.6649 1.85342 88.5909 0.357914H40.3122L35.9883 12.4845H49.8704V51.5301H63.9477V12.4845H76.4644C76.6594 12.0618 76.822 11.6392 77.0495 11.2491H77.017Z" fill="white"/>
<path d="M122.991 16.5157C121.853 13.3947 120.195 10.5987 118.049 8.16039C115.903 5.72208 113.335 3.73891 110.344 2.24341C107.32 0.747908 104.004 0.000156403 100.363 0.000156403C96.7219 0.000156403 95.6816 0.325265 93.5359 0.942973C92.463 1.26808 91.4227 1.65821 90.4148 2.11337C87.3913 3.54385 84.7904 5.42948 82.5797 7.80277C81.2467 9.23325 80.1414 10.7613 79.166 12.4518C78.5158 13.5897 77.9306 14.7926 77.443 16.0605C76.2075 19.1816 75.5898 22.4327 75.5898 25.8138C75.5898 29.195 76.175 32.3485 77.3454 35.4696C78.5158 38.5906 80.1739 41.3865 82.3196 43.7924C84.4653 46.2307 87.0337 48.1813 90.0247 49.6768C93.0157 51.1723 96.3643 51.9201 100.006 51.9201C103.647 51.9201 106.93 51.2048 109.954 49.7418C111.709 48.9291 113.302 47.9212 114.733 46.7834L121.495 29.4225H114.375L123.218 17.3285C123.121 17.0359 123.023 16.7758 122.926 16.4832H122.991V16.5157ZM95.6491 38.298C94.3486 37.5177 93.2758 36.5099 92.398 35.2745C91.5202 34.0391 90.9025 32.6086 90.4798 30.9831C90.0572 29.3575 89.8621 27.6995 89.8621 25.9764C89.8621 24.2533 90.0572 22.6603 90.4798 21.0347C90.9025 19.4092 91.5202 17.9787 92.3655 16.7108C93.2108 15.4428 94.2511 14.4025 95.5515 13.6547C96.8195 12.8745 98.3475 12.5169 100.136 12.5169C101.924 12.5169 103.387 12.907 104.687 13.6222C105.988 14.37 107.06 15.3453 107.906 16.5807C108.751 17.8161 109.401 19.2141 109.824 20.8397C110.246 22.4652 110.474 24.1233 110.474 25.8463C110.474 27.5694 110.279 29.195 109.856 30.8205C109.434 32.446 108.849 33.909 108.003 35.177C107.19 36.4449 106.118 37.4852 104.817 38.2655C103.517 39.0458 101.989 39.4684 100.201 39.4684C98.4125 39.4684 96.9495 39.0783 95.6491 38.3305V38.298Z" fill="white"/>
<path d="M126.402 0.292652V13.1345L135.765 0.292652H126.402Z" fill="white"/>
<path d="M166.228 26.3664C167.529 23.798 168.179 21.0021 168.179 18.0436C168.179 15.0851 167.756 13.7197 166.878 11.5739C166.001 9.42822 164.83 7.54258 163.302 5.88453C161.774 4.22647 159.986 2.89352 157.84 1.85318C155.727 0.812826 153.419 0.292652 150.916 0.292652H137.196L127.605 23.5705H134.433L127.41 33.0962V51.4973H141.487V35.762H146.754L156.507 51.4973H172.373L160.831 32.6735C163.14 31.048 164.96 28.9348 166.228 26.3664ZM152.769 22.075C152.021 23.0503 151.208 23.5054 150.363 23.5054H141.487V12.5493H150.005C150.883 12.5493 151.728 13.0044 152.606 13.9472C153.484 14.89 153.907 16.2555 153.907 18.0111C153.907 19.7667 153.516 21.0996 152.801 22.0424H152.769V22.075Z" fill="white"/>
<path d="M210.018 0.292652L198.899 24.3832L187.878 0.292652H172.5V51.4973H186.577V24.5133L195.16 43.4996H202.67L211.253 24.5133V51.4973H225.33V0.292652H210.018Z" fill="white"/>
</svg>
