<svg width="139" height="58" viewBox="0 0 139 58" fill="none" xmlns="http://www.w3.org/2000/svg">
<path d="M24.9705 21.6063V21.2445C24.7707 14.4712 19.2573 13.3457 16.3607 12.2001C13.4042 11.0343 10.2679 10.9539 10.2679 9.30585C10.2679 7.65775 14.6427 7.69795 14.6427 7.69795H20.2561L21.155 5.1655L22.9129 0.201107H12.7849C4.63453 0.221206 2.25733 6.27093 2.25733 6.27093C1.63807 7.59745 1.33842 9.56713 1.33842 11.3157C1.33842 11.3157 1.51821 16.1997 5.83311 17.8076C6.81195 18.3503 7.75084 18.6518 9.10924 19.1341C10.0282 19.4557 10.9071 19.7371 11.7262 19.9783C11.7262 19.9783 16.6204 21.0435 15.9412 22.6514C14.403 26.2089 6.79198 22.2896 6.79198 22.2896C5.69328 21.7872 4.6545 21.2043 3.63571 20.5612L0 28.1585C0.918915 28.7213 1.91773 29.2237 2.99646 29.6659C4.07519 30.1081 5.19387 30.4899 6.3525 30.8316C7.51113 31.1532 8.68974 31.4145 9.86834 31.5954C11.047 31.7763 12.2056 31.8567 13.3243 31.8567C14.4429 31.8567 16.1409 31.6758 17.5393 31.3542C18.9376 31.0125 20.1762 30.4497 21.2948 29.686C22.3936 28.9222 23.2925 27.8771 23.9717 26.5908C24.6509 25.3045 24.9905 23.6966 24.9905 21.8073C24.9905 19.918 24.9905 21.6867 24.9905 21.6264L24.9705 21.6063Z" fill="#292929"/>
<path d="M47.3245 6.95417C47.9837 5.80854 48.7628 4.7433 49.6418 3.79866C51.0001 2.33145 52.6382 1.14563 54.4361 0.221083H24.7711L22.1143 7.71792H30.6442V31.8565H39.294V7.71792H46.9849C47.1047 7.45664 47.2046 7.19535 47.3445 6.95417H47.3245Z" fill="#292929"/>
<path d="M75.5709 10.2101C74.8717 8.28065 73.8529 6.55216 72.5345 5.04475C71.2161 3.53734 69.6379 2.31132 67.8001 1.38678C65.9423 0.462233 63.9047 -3.8147e-05 61.6673 -3.8147e-05C59.43 -3.8147e-05 58.7907 0.20095 57.4723 0.582826C56.8131 0.783814 56.1738 1.025 55.5546 1.30638C53.6967 2.19073 52.0986 3.35646 50.7402 4.82367C49.9212 5.70801 49.242 6.65265 48.6427 7.69779C48.2432 8.40125 47.8836 9.1449 47.584 9.92875C46.8249 11.8582 46.4453 13.8681 46.4453 15.9584C46.4453 18.0487 46.8049 19.9982 47.524 21.9277C48.2432 23.8572 49.262 25.5857 50.5804 27.073C51.8989 28.5804 53.477 29.7863 55.3148 30.7109C57.1527 31.6354 59.2102 32.0977 61.4476 32.0977C63.685 32.0977 65.7026 31.6555 67.5604 30.7511C68.6391 30.2486 69.6179 29.6255 70.4969 28.9221L74.652 18.1893H70.2772L75.7107 10.7126C75.6508 10.5317 75.5909 10.3709 75.531 10.19L75.5709 10.2101ZM58.7708 23.6763C57.9717 23.1939 57.3125 22.5709 56.7731 21.8071C56.2338 21.0434 55.8542 20.159 55.5945 19.1541C55.3348 18.1491 55.215 17.1241 55.215 16.0589C55.215 14.9936 55.3348 14.0088 55.5945 13.0039C55.8542 11.9989 56.2338 11.1146 56.7531 10.3307C57.2725 9.54688 57.9118 8.90371 58.7108 8.44144C59.4899 7.95907 60.4288 7.73799 61.5275 7.73799C62.6262 7.73799 63.5251 7.97917 64.3242 8.42134C65.1233 8.88362 65.7825 9.48658 66.3019 10.2503C66.8212 11.0141 67.2208 11.8783 67.4805 12.8833C67.7402 13.8882 67.88 14.9132 67.88 15.9785C67.88 17.0437 67.7601 18.0487 67.5004 19.0536C67.2408 20.0585 66.8812 20.963 66.3618 21.7468C65.8624 22.5307 65.2032 23.1738 64.4041 23.6562C63.605 24.1386 62.6662 24.3999 61.5675 24.3999C60.4688 24.3999 59.5698 24.1587 58.7708 23.6964V23.6763Z" fill="#292929"/>
<path d="M77.668 0.18059V8.1196L83.4212 0.18059H77.668Z" fill="#292929"/>
<path d="M102.139 16.2998C102.938 14.712 103.338 12.9835 103.338 11.1545C103.338 9.32553 103.078 8.48138 102.538 7.15486C101.999 5.82834 101.28 4.66261 100.341 3.63758C99.4022 2.61254 98.3035 1.78849 96.985 1.14533C95.6866 0.50217 94.2682 0.18059 92.7301 0.18059H84.3L78.407 14.5713H82.602L78.2871 20.4602V31.8361H86.9369V22.1083H90.1731L96.166 31.8361H105.914L98.8229 20.199C100.241 19.194 101.36 17.8876 102.139 16.2998ZM93.8687 13.6468C93.4092 14.2497 92.9098 14.5311 92.3905 14.5311H86.9369V7.75782H92.1707C92.7101 7.75782 93.2295 8.03921 93.7688 8.62207C94.3082 9.20494 94.5679 10.0491 94.5679 11.1344C94.5679 12.2197 94.3282 13.0438 93.8887 13.6267L93.8687 13.6468Z" fill="#292929"/>
<path d="M129.048 0.18059L122.216 15.0738L115.444 0.18059H105.995V31.8361H114.645V15.1542L119.919 26.8918H124.533L129.807 15.1542V31.8361H138.457V0.18059H129.048Z" fill="#292929"/>
<path d="M1.74957 53.8001C1.65968 53.8001 1.58976 53.778 1.53782 53.7318C1.48589 53.6876 1.46191 53.6313 1.46191 53.567C1.46191 53.5167 1.48788 53.4504 1.53782 53.374C1.76755 53.1168 1.91738 52.9279 1.98929 52.8053C2.05921 52.6827 2.10515 52.5279 2.12313 52.343C2.14311 52.1561 2.1511 51.8124 2.1511 51.3099V42.5308C2.16309 42.0424 2.16109 41.7047 2.14111 41.5178C2.12114 41.3309 2.07319 41.1761 1.99728 41.0555C1.92137 40.9329 1.76755 40.744 1.53782 40.4867C1.48589 40.4103 1.46191 40.346 1.46191 40.2938C1.46191 40.2174 1.48788 40.1551 1.53782 40.1109C1.58976 40.0667 1.65968 40.0425 1.74957 40.0425H5.52711C6.98539 40.0425 8.28186 40.3038 9.42051 40.8244C10.5592 41.3449 11.4561 42.1228 12.1153 43.1599C12.7726 44.1949 13.1022 45.4592 13.1022 46.9505C13.1022 47.8389 12.8984 48.8036 12.4889 49.8447C12.0794 50.8858 11.3263 51.8063 10.2256 52.6043C9.12686 53.4022 7.62464 53.8001 5.71889 53.8001H1.74957ZM8.61547 52.2284C9.51041 51.746 10.1996 51.0547 10.687 50.1542C11.1724 49.2538 11.4162 48.1926 11.4162 46.9706C11.4162 45.0672 10.9008 43.5779 9.87198 42.5046C8.8432 41.4314 7.29902 40.8927 5.24145 40.8927C4.76801 40.8927 4.42242 40.947 4.20667 41.0575C3.98893 41.1661 3.84909 41.3469 3.78517 41.5982C3.72125 41.8494 3.68928 42.2574 3.68928 42.8242V50.6185C3.68928 51.3903 3.71126 51.9149 3.7572 52.1902C3.80115 52.4676 3.94498 52.6626 4.18869 52.7791C4.43041 52.8957 4.8599 52.952 5.47318 52.952C6.67376 52.952 7.72252 52.7108 8.61746 52.2284H8.61547Z" fill="#FF5964"/>
<path d="M14.7146 53.7341C14.6626 53.6899 14.6387 53.6336 14.6387 53.5693C14.6387 53.5191 14.6646 53.4527 14.7146 53.3764C14.9443 53.1191 15.0941 52.9302 15.166 52.8076C15.236 52.685 15.2819 52.5302 15.2999 52.3453C15.3199 52.1584 15.3279 51.8147 15.3279 51.3122V46.5086C15.3279 45.9036 15.3219 45.4956 15.3079 45.2826C15.2959 45.0695 15.2559 44.9088 15.192 44.8002C15.1281 44.6917 15.0002 44.5329 14.8085 44.3279C14.7186 44.2113 14.6746 44.1229 14.6746 44.0586C14.6746 43.942 14.7585 43.8596 14.9243 43.8073L16.037 43.4014C16.2148 43.3511 16.3247 43.325 16.3626 43.325C16.6303 43.325 16.7662 43.5702 16.7662 44.0586V51.3142C16.7542 51.8026 16.7562 52.1403 16.7761 52.3272C16.7961 52.5141 16.8441 52.6689 16.92 52.7895C16.9959 52.9121 17.1497 53.101 17.3794 53.3583C17.4294 53.4347 17.4553 53.501 17.4553 53.5512C17.4553 53.6276 17.4294 53.6899 17.3794 53.7341C17.3275 53.7783 17.2576 53.8025 17.1677 53.8025H14.9243C14.8344 53.8025 14.7645 53.7804 14.7126 53.7341H14.7146ZM15.0502 41.3955C14.8264 41.1905 14.7146 40.9252 14.7146 40.6036C14.7146 40.282 14.8264 40.0368 15.0502 39.8318C15.2739 39.6268 15.5516 39.5223 15.8852 39.5223C16.2188 39.5223 16.4725 39.6248 16.6903 39.8318C16.908 40.0368 17.0159 40.2941 17.0159 40.6036C17.0159 40.9131 16.91 41.1885 16.7002 41.3955C16.4885 41.6005 16.2168 41.705 15.8852 41.705C15.5536 41.705 15.2739 41.6025 15.0502 41.3955Z" fill="#FF5964"/>
<path d="M20.5233 51.7744C19.884 51.3503 19.4046 50.7875 19.085 50.0861C18.7653 49.3846 18.6055 48.637 18.6055 47.8391C18.6055 47.0411 18.7773 46.2693 19.1229 45.5619C19.4685 44.8544 19.9699 44.2876 20.6291 43.8635C21.2884 43.4394 22.0574 43.2264 22.9404 43.2264C23.7195 43.2264 24.3907 43.3751 24.954 43.6706C25.0299 43.7088 25.0819 43.6907 25.1078 43.6123C25.3256 42.9953 25.5453 42.545 25.7691 42.2616C25.9928 41.9783 26.2645 41.8376 26.5841 41.8376C26.8138 41.8376 26.9996 41.918 27.1394 42.0787C27.2793 42.2395 27.3512 42.4164 27.3512 42.6094C27.3512 42.8787 27.2193 43.1239 26.9577 43.343C26.696 43.562 26.3024 43.7992 25.7791 44.0565C25.6892 44.0947 25.6832 44.1469 25.7591 44.2112C26.2325 44.6233 26.5941 45.1378 26.8418 45.7548C27.0915 46.3718 27.2213 47.0411 27.2353 47.7607C27.2353 48.6088 27.0396 49.4007 26.65 50.1343C26.2605 50.8679 25.7131 51.4408 25.01 51.8508C24.958 51.8769 24.936 51.903 24.942 51.9271C24.948 51.9533 24.976 51.9714 25.0279 51.9854C25.821 52.1522 26.4622 52.4356 26.9557 52.8336C27.4471 53.2316 27.6948 53.728 27.6948 54.3189C27.6948 55.0264 27.4431 55.6474 26.9377 56.18C26.4323 56.7127 25.7611 57.1187 24.9241 57.396C24.087 57.6734 23.1941 57.8101 22.2492 57.8101C21.0986 57.8101 20.1817 57.6171 19.4965 57.2312C18.8113 56.8453 18.4717 56.2986 18.4717 55.5911C18.4717 55.1791 18.6095 54.8093 18.8832 54.4817C19.1589 54.1541 19.4745 53.8928 19.8321 53.6999C20.1897 53.5069 20.4573 53.4104 20.6371 53.4104C20.7909 53.4104 20.8669 53.4747 20.8669 53.6034C20.8669 53.6416 20.8409 53.6898 20.7909 53.7481C20.741 53.8064 20.6831 53.8667 20.6191 53.931C20.4134 54.1239 20.2456 54.3289 20.1117 54.548C19.9779 54.7671 19.91 55.0304 19.91 55.3399C19.91 55.8424 20.1237 56.2403 20.5532 56.5358C20.9807 56.8312 21.598 56.98 22.403 56.98C23.5277 56.98 24.4167 56.7428 25.0679 56.2665C25.7191 55.7901 26.0467 55.1791 26.0467 54.4335C26.0467 53.7642 25.7391 53.2657 25.1258 52.9381C24.5125 52.6105 23.7375 52.4336 22.8046 52.4075C21.9216 52.4075 21.1625 52.1945 20.5233 51.7704V51.7744ZM24.9161 50.472C25.4015 49.7324 25.6452 48.836 25.6452 47.7808C25.6452 46.7256 25.4115 45.793 24.946 45.0996C24.4786 44.4042 23.8114 44.0585 22.9424 44.0585C22.0734 44.0585 21.3503 44.4102 20.8908 45.1096C20.4314 45.8111 20.1996 46.7216 20.1996 47.8391C20.1996 48.8802 20.4274 49.7645 20.8808 50.4921C21.3343 51.2197 21.9895 51.5814 22.8465 51.5814C23.7035 51.5814 24.4326 51.2116 24.9181 50.472H24.9161Z" fill="#FF5964"/>
<path d="M28.8074 53.7341C28.7554 53.6899 28.7314 53.6336 28.7314 53.5693C28.7314 53.5191 28.7574 53.4527 28.8074 53.3764C29.0371 53.1191 29.1869 52.9302 29.2588 52.8076C29.3287 52.685 29.3747 52.5302 29.3927 52.3453C29.4126 52.1584 29.4206 51.8147 29.4206 51.3122V46.5086C29.4206 45.9036 29.4146 45.4956 29.4007 45.2826C29.3887 45.0695 29.3487 44.9088 29.2848 44.8002C29.2209 44.6917 29.093 44.5329 28.9012 44.3279C28.8113 44.2113 28.7674 44.1229 28.7674 44.0586C28.7674 43.942 28.8513 43.8596 29.0171 43.8073L30.1298 43.4014C30.3076 43.3511 30.4175 43.325 30.4554 43.325C30.7231 43.325 30.8589 43.5702 30.8589 44.0586V51.3142C30.8469 51.8026 30.8489 52.1403 30.8689 52.3272C30.8889 52.5141 30.9368 52.6689 31.0128 52.7895C31.0887 52.9121 31.2425 53.101 31.4722 53.3583C31.5221 53.4347 31.5481 53.501 31.5481 53.5512C31.5481 53.6276 31.5221 53.6899 31.4722 53.7341C31.4203 53.7783 31.3504 53.8025 31.2605 53.8025H29.0171C28.9272 53.8025 28.8573 53.7804 28.8054 53.7341H28.8074ZM29.145 41.3955C28.9212 41.1905 28.8094 40.9252 28.8094 40.6036C28.8094 40.282 28.9212 40.0368 29.145 39.8318C29.3687 39.6268 29.6464 39.5223 29.98 39.5223C30.3136 39.5223 30.5673 39.6248 30.785 39.8318C31.0028 40.0368 31.1106 40.2941 31.1106 40.6036C31.1106 40.9131 31.0048 41.1885 30.795 41.3955C30.5833 41.6005 30.3116 41.705 29.98 41.705C29.6484 41.705 29.3687 41.6025 29.145 41.3955Z" fill="#FF5964"/>
<path d="M34.1393 53.2617C33.7558 52.7994 33.564 52.0658 33.564 51.0629V45.7186C33.564 45.3327 33.4901 45.0493 33.3443 44.8705C33.1964 44.6896 32.9967 44.5308 32.741 44.3881C32.6131 44.3117 32.5172 44.2434 32.4533 44.1851C32.3894 44.1268 32.3574 44.0524 32.3574 43.964C32.3574 43.8233 32.4733 43.6364 32.703 43.4053L34.391 41.7069C34.5069 41.5903 34.6148 41.5341 34.7166 41.5341C34.8065 41.5341 34.8764 41.5702 34.9284 41.6406C34.9783 41.7109 35.0043 41.7994 35.0043 41.9019V43.4073C35.0043 43.4836 35.0423 43.5238 35.1202 43.5238L37.8429 43.3892C37.9968 43.3771 38.1146 43.4213 38.1985 43.5238C38.2824 43.6263 38.3224 43.7489 38.3224 43.8896C38.3224 44.0444 38.2804 44.1831 38.1985 44.3037C38.1146 44.4263 38.0028 44.4866 37.8629 44.4866H35.1202C35.0442 44.4866 35.0043 44.5248 35.0043 44.6031V50.7775C35.0043 51.3945 35.0942 51.8869 35.272 52.2527C35.4518 52.6185 35.8273 52.8034 36.4026 52.8034C36.7602 52.8034 37.0579 52.7653 37.2936 52.6869C37.5293 52.6105 37.7511 52.516 37.9548 52.4075C38.1586 52.299 38.2864 52.2427 38.3384 52.2427C38.4402 52.2427 38.4922 52.307 38.4922 52.4356C38.4922 52.6025 38.3803 52.8095 38.1566 53.0527C37.9328 53.2979 37.6292 53.5089 37.2456 53.6898C36.8621 53.8707 36.4406 53.9591 35.9791 53.9591C35.1361 53.9591 34.5209 53.728 34.1373 53.2637L34.1393 53.2617Z" fill="#FF5964"/>
<path d="M40.4397 53.6553C39.9722 53.4301 39.5987 53.1045 39.317 52.6805C39.0353 52.2564 38.8955 51.768 38.8955 51.2133C38.8955 48.924 41.057 47.3744 45.3779 46.5624C45.4538 46.5363 45.4937 46.4921 45.4937 46.4277C45.4558 45.6941 45.266 45.1193 44.9284 44.7013C44.5888 44.2832 44.0434 44.0742 43.2883 44.0742C42.9307 44.0742 42.6331 44.1425 42.3974 44.2772C42.1597 44.4118 41.9719 44.5706 41.832 44.7495C41.6902 44.9304 41.5324 45.1816 41.3526 45.5012C41.1468 45.861 40.9651 46.1263 40.8053 46.2931C40.6454 46.4599 40.4317 46.5443 40.162 46.5443C39.9583 46.5443 39.7905 46.474 39.6626 46.3313C39.5348 46.1906 39.4708 46.0097 39.4708 45.7906C39.4708 45.3927 39.6366 44.9927 39.9702 44.5947C40.3018 44.1968 40.7653 43.8672 41.3606 43.6099C41.9559 43.3526 42.6171 43.224 43.3463 43.224C44.4849 43.224 45.3699 43.5295 46.0011 44.1405C46.6344 44.7515 46.95 45.7062 46.95 47.0066V52.1961C46.95 52.5559 47.0079 52.8111 47.1238 52.9578C47.2397 53.1066 47.4614 53.1789 47.795 53.1789C47.9228 53.1789 47.9868 53.2372 47.9868 53.3518C47.9868 53.4422 47.9488 53.5186 47.8709 53.5829C47.5892 53.802 47.2057 53.9105 46.7203 53.9105C46.3108 53.9105 46.0111 53.7819 45.8193 53.5246C45.6276 53.2673 45.5257 52.8553 45.5117 52.2906V52.2323C45.5117 52.182 45.4957 52.1478 45.4637 52.1358C45.4318 52.1237 45.4038 52.1418 45.3779 52.1941C45.0063 52.7609 44.5209 53.201 43.9196 53.5166C43.3183 53.8321 42.6671 53.9889 41.9639 53.9889C41.4145 53.9889 40.9051 53.8763 40.4397 53.6512V53.6553ZM43.9775 52.4795C44.437 52.2021 44.8085 51.7821 45.0902 51.2153C45.3719 50.6485 45.5117 49.9611 45.5117 49.1511V47.491C45.5117 47.4528 45.4997 47.4206 45.4737 47.3945C45.4478 47.3684 45.4158 47.3623 45.3779 47.3744C43.7797 47.696 42.5552 48.1562 41.7062 48.7532C40.8552 49.3521 40.4317 50.0757 40.4317 50.9238C40.4317 51.4645 40.6135 51.9268 40.979 52.3127C41.3426 52.6986 41.838 52.8915 42.4653 52.8915C43.0146 52.8915 43.52 52.7528 43.9795 52.4775L43.9775 52.4795Z" fill="#FF5964"/>
<path d="M48.8474 53.7339C48.7955 53.6897 48.7715 53.6334 48.7715 53.5691C48.7715 53.5188 48.7975 53.4525 48.8474 53.3761C49.0771 53.1189 49.2269 52.9299 49.2989 52.8073C49.3688 52.6847 49.4147 52.53 49.4327 52.3451C49.4527 52.1581 49.4607 51.8145 49.4607 51.312V42.5529C49.4607 41.948 49.4547 41.54 49.4407 41.3269C49.4287 41.1139 49.3888 40.9531 49.3248 40.8445C49.2609 40.736 49.1331 40.5772 48.9413 40.3722C48.8514 40.2557 48.8074 40.1672 48.8074 40.1029C48.8074 39.9863 48.8913 39.9039 49.0571 39.8517L50.1698 39.4457C50.3496 39.3954 50.4575 39.3693 50.4954 39.3693C50.7631 39.3693 50.899 39.6145 50.899 40.1029V51.314C50.887 51.8024 50.889 52.1401 50.909 52.327C50.9289 52.5139 50.9769 52.6687 51.0528 52.7892C51.1287 52.9118 51.2825 53.1008 51.5122 53.358C51.5622 53.4344 51.5882 53.5007 51.5882 53.551C51.5882 53.6274 51.5622 53.6897 51.5122 53.7339C51.4603 53.7781 51.3904 53.8022 51.3005 53.8022H49.0571C48.9673 53.8022 48.8973 53.7801 48.8454 53.7339H48.8474Z" fill="#FF5964"/>
<path d="M56.7488 53.7338C56.6968 53.6896 56.6729 53.6273 56.6729 53.5509C56.6729 53.4745 56.6928 53.4102 56.7308 53.358C56.9106 53.0485 57.0344 52.7208 57.1043 52.3731C57.1743 52.0254 57.2162 51.4466 57.2282 50.6366L57.4 42.5328L57.42 41.8193C57.42 41.4977 57.384 41.2686 57.3141 41.1339C57.2442 40.9992 57.0804 40.7842 56.8247 40.4867C56.7727 40.4103 56.7488 40.346 56.7488 40.2938C56.7488 40.2174 56.7747 40.1551 56.8247 40.1109C56.8766 40.0667 56.9465 40.0425 57.0364 40.0425H58.7824C58.9601 40.0425 59.09 40.0626 59.1659 40.1008C59.2418 40.139 59.3117 40.2174 59.3777 40.332C59.4416 40.4485 59.5574 40.6857 59.7232 41.0455L63.6346 49.9794C63.6606 50.0176 63.6886 50.0397 63.7205 50.0477C63.7525 50.0537 63.7745 50.0316 63.7884 49.9794L67.6439 40.8344C67.7717 40.539 67.8956 40.332 68.0174 40.2174C68.1393 40.1008 68.2831 40.0445 68.4489 40.0445H70.2328C70.3227 40.0445 70.3926 40.0667 70.4446 40.1129C70.4965 40.1591 70.5205 40.2134 70.5205 40.2777C70.5205 40.3299 70.4945 40.3943 70.4446 40.4706C70.1769 40.7661 70.0091 40.9852 69.9452 41.1259C69.8813 41.2686 69.8493 41.5118 69.8493 41.8595L69.8693 42.5348L70.061 51.3139C70.073 51.8023 70.089 52.14 70.109 52.3269C70.129 52.5138 70.1769 52.6686 70.2528 52.7892C70.3287 52.9118 70.4825 53.1007 70.7123 53.358C70.7642 53.4343 70.7882 53.5007 70.7882 53.5509C70.7882 53.6273 70.7622 53.6896 70.7123 53.7338C70.6603 53.778 70.5904 53.8022 70.5005 53.8022H68.1613C68.0714 53.8022 68.0015 53.78 67.9495 53.7338C67.8976 53.6896 67.8736 53.6333 67.8736 53.569C67.8736 53.5188 67.8996 53.4524 67.9495 53.3761C68.2172 53.0806 68.383 52.8615 68.4489 52.7208C68.5129 52.5801 68.5448 52.3349 68.5448 51.9872L68.5249 51.3119L68.2751 41.9539C68.2751 41.8896 68.2552 41.8575 68.2172 41.8575C68.1793 41.8575 68.1533 41.8836 68.1413 41.9338L64.0561 51.5812C63.8903 51.9933 63.6666 52.1983 63.3849 52.1983C63.1033 52.1983 62.8855 51.9933 62.6937 51.5812L58.4947 41.972C58.4827 41.9218 58.4567 41.8977 58.4188 41.9037C58.3808 41.9097 58.3609 41.9459 58.3609 42.0102C58.3229 43.4895 58.3029 44.9748 58.3029 46.4681C58.3029 48.0499 58.3349 49.4066 58.3988 50.5401C58.4488 51.2355 58.5446 51.7621 58.6865 52.1219C58.8263 52.4817 59.076 52.8736 59.4336 53.2997C59.4975 53.3901 59.5295 53.4725 59.5295 53.5509C59.5295 53.7177 59.4216 53.8022 59.2039 53.8022H56.9605C56.8706 53.8022 56.8007 53.78 56.7488 53.7338Z" fill="#FF5964"/>
<path d="M73.4807 53.6553C73.0133 53.4301 72.6397 53.1045 72.358 52.6805C72.0764 52.2564 71.9365 51.768 71.9365 51.2133C71.9365 48.924 74.096 47.3744 78.4189 46.5624C78.4948 46.5363 78.5327 46.4921 78.5327 46.4277C78.4948 45.6941 78.305 45.1193 77.9674 44.7013C77.6278 44.2832 77.0824 44.0742 76.3273 44.0742C75.9698 44.0742 75.6721 44.1425 75.4364 44.2772C75.2007 44.4118 75.0109 44.5706 74.8711 44.7495C74.7292 44.9304 74.5714 45.1816 74.3916 45.5012C74.1859 45.861 74.0041 46.1263 73.8443 46.2931C73.6845 46.4599 73.4707 46.5443 73.201 46.5443C72.9973 46.5443 72.8295 46.474 72.7016 46.3313C72.5738 46.1906 72.5099 46.0097 72.5099 45.7906C72.5099 45.3927 72.6757 44.9927 73.0093 44.5947C73.3409 44.1968 73.8043 43.8672 74.3996 43.6099C74.9949 43.3526 75.6561 43.224 76.3853 43.224C77.5239 43.224 78.4089 43.5295 79.0421 44.1405C79.6754 44.7515 79.991 45.7062 79.991 47.0066V52.1961C79.991 52.5559 80.0489 52.8111 80.1628 52.9578C80.2787 53.1066 80.5024 53.1789 80.834 53.1789C80.9619 53.1789 81.0258 53.2372 81.0258 53.3518C81.0258 53.4422 80.9878 53.5186 80.9099 53.5829C80.6283 53.802 80.2447 53.9105 79.7593 53.9105C79.3498 53.9105 79.0501 53.7819 78.8584 53.5246C78.6666 53.2673 78.5647 52.8553 78.5507 52.2906V52.2323C78.5507 52.182 78.5347 52.1478 78.5028 52.1358C78.4708 52.1237 78.4428 52.1418 78.4169 52.1941C78.0453 52.7609 77.5599 53.201 76.9586 53.5166C76.3573 53.8321 75.7061 53.9889 75.0029 53.9889C74.4536 53.9889 73.9442 53.8763 73.4787 53.6512L73.4807 53.6553ZM77.0185 52.4795C77.478 52.2021 77.8495 51.7821 78.1312 51.2153C78.4129 50.6485 78.5527 49.9611 78.5527 49.1511V47.491C78.5527 47.4528 78.5407 47.4206 78.5148 47.3945C78.4888 47.3684 78.4568 47.3623 78.4189 47.3744C76.8208 47.696 75.5962 48.1562 74.7472 48.7532C73.8962 49.3521 73.4727 50.0757 73.4727 50.9238C73.4727 51.4645 73.6545 51.9268 74.0201 52.3127C74.3856 52.6986 74.8791 52.8915 75.5063 52.8915C76.0557 52.8915 76.5611 52.7528 77.0205 52.4775L77.0185 52.4795Z" fill="#FF5964"/>
<path d="M82.0066 53.7341C81.9546 53.6899 81.9307 53.6336 81.9307 53.5693C81.9307 53.519 81.9566 53.4527 82.0066 53.3763C82.2363 53.1191 82.3861 52.9301 82.458 52.8075C82.528 52.6849 82.5739 52.5302 82.5919 52.3453C82.6119 52.1584 82.6198 51.8147 82.6198 51.3122V46.392C82.6198 45.8775 82.6099 45.5177 82.5919 45.3107C82.5719 45.1057 82.5319 44.9449 82.468 44.8283C82.4041 44.7118 82.2703 44.5329 82.0645 44.2877C81.9746 44.1711 81.9307 44.0887 81.9307 44.0364C81.9307 43.9199 82.0146 43.8375 82.1804 43.7852L83.311 43.3611C83.363 43.335 83.4329 43.3229 83.5228 43.3229C83.7645 43.3229 83.8863 43.4455 83.8863 43.6887V44.8665C83.8863 44.9188 83.9023 44.9509 83.9343 44.963C83.9663 44.9751 83.9942 44.957 84.0202 44.9047C84.3278 44.3641 84.7194 43.95 85.1988 43.6606C85.6782 43.3712 86.1737 43.2265 86.685 43.2265C87.2983 43.2265 87.8037 43.3993 88.1993 43.747C88.5948 44.0947 88.7946 44.5248 88.7946 45.0394C88.7946 45.3087 88.7306 45.5378 88.6028 45.7247C88.4749 45.9117 88.3031 46.0041 88.0854 46.0041C87.8297 46.0041 87.6479 45.9458 87.538 45.8313C87.4302 45.7147 87.3243 45.5298 87.2224 45.2725C87.1205 44.9891 86.9987 44.7781 86.8588 44.6354C86.717 44.4947 86.4813 44.4223 86.1497 44.4223C85.7781 44.4223 85.4325 44.561 85.1149 44.8364C84.7953 45.1137 84.5396 45.4735 84.3478 45.9177C84.156 46.3619 84.0601 46.8141 84.0601 47.2784V51.3102C84.0482 51.7986 84.0502 52.1362 84.0701 52.3232C84.0901 52.5101 84.1381 52.6648 84.214 52.7854C84.2899 52.908 84.4437 53.097 84.6734 53.3542C84.7254 53.4306 84.7493 53.4969 84.7493 53.5472C84.7493 53.6236 84.7234 53.6859 84.6734 53.7301C84.6215 53.7743 84.5516 53.7984 84.4637 53.7984H82.2203C82.1304 53.7984 82.0605 53.7763 82.0086 53.7301L82.0066 53.7341Z" fill="#FF5964"/>
<path d="M89.6579 53.7339C89.606 53.6897 89.582 53.6334 89.582 53.5691C89.582 53.5188 89.608 53.4525 89.6579 53.3761C89.8877 53.1189 90.0375 52.9299 90.1094 52.8073C90.1793 52.6847 90.2253 52.53 90.2432 52.3451C90.2632 52.1581 90.2712 51.8145 90.2712 51.312V42.5529C90.2712 41.948 90.2652 41.54 90.2512 41.3269C90.2393 41.1139 90.1993 40.9531 90.1354 40.8445C90.0715 40.736 89.9436 40.5772 89.7518 40.3722C89.6619 40.2557 89.618 40.1672 89.618 40.1029C89.618 39.9863 89.7019 39.9039 89.8677 39.8517L90.9804 39.4457C91.1602 39.3954 91.268 39.3693 91.306 39.3693C91.5737 39.3693 91.7095 39.6145 91.7095 40.1029V48.9584C91.7095 49.0107 91.7215 49.0428 91.7475 49.0549C91.7734 49.067 91.8054 49.0549 91.8434 49.0167C92.5985 48.3354 93.2117 47.7625 93.6852 47.3003C94.1586 46.838 94.5741 46.3677 94.9317 45.8913C95.2633 45.4552 95.505 45.1236 95.6509 44.8985C95.7967 44.6734 95.8706 44.4764 95.8706 44.3096C95.8706 44.1689 95.8127 44.0322 95.6988 43.9036C95.6349 43.8131 95.6029 43.7227 95.6029 43.6343C95.6029 43.4674 95.6928 43.383 95.8706 43.383H97.8263C97.9162 43.383 97.9861 43.4051 98.038 43.4514C98.09 43.4956 98.114 43.5519 98.114 43.6162C98.114 43.6925 98.082 43.7649 98.0181 43.8292L97.6925 44.1769C97.3089 44.5628 96.9373 44.9688 96.5798 45.3929C96.1962 45.8552 95.7867 46.3255 95.3532 46.8018L94.9317 47.2842C94.8798 47.3364 94.8798 47.3867 94.9317 47.439C95.4551 48.0178 95.9745 48.6871 96.4859 49.4448C96.9973 50.2045 97.4188 50.9502 97.7524 51.6838C98.046 52.3531 98.3657 52.8857 98.7113 53.2857C98.7752 53.35 98.8071 53.4284 98.8071 53.5168C98.8071 53.5932 98.7812 53.6615 98.7312 53.7198C98.6793 53.7781 98.6094 53.8062 98.5195 53.8062H96.1423C96.0524 53.8062 95.9825 53.7841 95.9305 53.7379C95.8786 53.6937 95.8546 53.6314 95.8546 53.555C95.8546 53.4907 95.8806 53.4203 95.9305 53.342C96.0584 53.1611 96.1702 53.0043 96.2661 52.8696C96.362 52.735 96.41 52.6023 96.41 52.4737C96.41 52.3451 96.352 52.1401 96.2382 51.8567C96.0084 51.3039 95.6688 50.699 95.2214 50.0438C94.7739 49.3885 94.3524 48.8539 93.9549 48.4419C93.9029 48.3916 93.853 48.3916 93.801 48.4419C93.5074 48.7373 93.0399 49.1815 92.4007 49.7724C92.119 50.0176 91.9373 50.2226 91.8553 50.3895C91.7714 50.5563 91.7235 50.8075 91.7115 51.1411V51.314C91.6995 51.8024 91.7015 52.1401 91.7215 52.327C91.7415 52.5139 91.7894 52.6687 91.8653 52.7892C91.9412 52.9118 92.0951 53.1008 92.3248 53.358C92.3747 53.4344 92.4007 53.5007 92.4007 53.551C92.4007 53.6274 92.3747 53.6897 92.3248 53.7339C92.2729 53.7781 92.2029 53.8022 92.113 53.8022H89.8697C89.7798 53.8022 89.7099 53.7801 89.6599 53.7339H89.6579Z" fill="#FF5964"/>
<path d="M101.222 53.3763C100.519 52.9643 99.9755 52.3694 99.5919 51.5916C99.2084 50.8137 99.0166 49.8972 99.0166 48.8421C99.0166 47.7869 99.2264 46.8322 99.6499 45.976C100.071 45.1198 100.667 44.4485 101.434 43.9601C102.201 43.4717 103.076 43.2265 104.061 43.2265C105.045 43.2265 105.884 43.4717 106.468 43.9601C107.049 44.4485 107.341 45.0595 107.341 45.7931C107.341 47.0794 106.708 48.0341 105.443 48.6592C104.177 49.2842 102.656 49.7425 100.878 50.0379C100.814 50.05 100.789 50.0962 100.802 50.1726C101.032 50.9966 101.432 51.6298 102.001 52.0739C102.57 52.5181 103.302 52.7392 104.196 52.7392C104.772 52.7392 105.257 52.6548 105.653 52.488C106.048 52.3212 106.414 52.1081 106.745 51.8508C106.847 51.7865 106.939 51.7282 107.023 51.678C107.105 51.6257 107.173 51.6016 107.225 51.6016C107.353 51.6016 107.417 51.678 107.417 51.8328C107.417 52.0136 107.261 52.2789 106.947 52.6327C106.634 52.9864 106.196 53.302 105.633 53.5773C105.069 53.8547 104.43 53.9914 103.715 53.9914C102.756 53.9914 101.925 53.7864 101.222 53.3743V53.3763ZM100.607 49.0933C100.607 49.1697 100.645 49.2018 100.723 49.1898C104.111 48.5727 105.805 47.4472 105.805 45.8132C105.805 45.2725 105.649 44.8484 105.335 44.5389C105.022 44.2294 104.552 44.0766 103.927 44.0766C103.302 44.0766 102.73 44.2575 102.221 44.6173C101.709 44.9771 101.306 45.4836 101.012 46.1327C100.719 46.7819 100.571 47.5316 100.571 48.3798C100.571 48.5466 100.583 48.7858 100.609 49.0933H100.607Z" fill="#FF5964"/>
<path d="M110.004 53.2617C109.62 52.7994 109.428 52.0658 109.428 51.0629V45.7186C109.428 45.3327 109.354 45.0493 109.209 44.8705C109.061 44.6896 108.861 44.5308 108.605 44.3881C108.477 44.3117 108.381 44.2434 108.318 44.1851C108.254 44.1268 108.222 44.0524 108.222 43.964C108.222 43.8233 108.338 43.6364 108.567 43.4053L110.255 41.7069C110.371 41.5903 110.479 41.5341 110.581 41.5341C110.671 41.5341 110.741 41.5702 110.793 41.6406C110.845 41.7109 110.869 41.7994 110.869 41.9019V43.4073C110.869 43.4836 110.907 43.5238 110.984 43.5238L113.707 43.3892C113.861 43.3771 113.979 43.4213 114.063 43.5238C114.145 43.6263 114.187 43.7489 114.187 43.8896C114.187 44.0444 114.145 44.1831 114.063 44.3037C113.979 44.4263 113.867 44.4866 113.727 44.4866H110.984C110.909 44.4866 110.869 44.5248 110.869 44.6031V50.7775C110.869 51.3945 110.958 51.8869 111.136 52.2527C111.314 52.6185 111.692 52.8034 112.267 52.8034C112.624 52.8034 112.922 52.7653 113.158 52.6869C113.394 52.6105 113.615 52.516 113.819 52.4075C114.023 52.299 114.151 52.2427 114.203 52.2427C114.304 52.2427 114.356 52.307 114.356 52.4356C114.356 52.6025 114.245 52.8095 114.021 53.0527C113.797 53.2979 113.493 53.5089 113.11 53.6898C112.726 53.8707 112.305 53.9591 111.843 53.9591C111 53.9591 110.385 53.728 110.002 53.2637L110.004 53.2617Z" fill="#FF5964"/>
<path d="M115.317 53.7341C115.265 53.6899 115.241 53.6336 115.241 53.5693C115.241 53.5191 115.267 53.4527 115.317 53.3764C115.547 53.1191 115.697 52.9302 115.769 52.8076C115.839 52.685 115.884 52.5302 115.902 52.3453C115.922 52.1584 115.93 51.8147 115.93 51.3122V46.5086C115.93 45.9036 115.924 45.4956 115.91 45.2826C115.898 45.0695 115.858 44.9088 115.795 44.8002C115.731 44.6917 115.603 44.5329 115.411 44.3279C115.321 44.2113 115.277 44.1229 115.277 44.0586C115.277 43.942 115.361 43.8596 115.527 43.8073L116.64 43.4014C116.819 43.3511 116.927 43.325 116.965 43.325C117.233 43.325 117.369 43.5702 117.369 44.0586V51.3142C117.357 51.8026 117.359 52.1403 117.379 52.3272C117.399 52.5141 117.447 52.6689 117.523 52.7895C117.598 52.9121 117.752 53.101 117.982 53.3583C118.032 53.4347 118.058 53.501 118.058 53.5512C118.058 53.6276 118.032 53.6899 117.982 53.7341C117.93 53.7783 117.86 53.8025 117.77 53.8025H115.527C115.437 53.8025 115.367 53.7804 115.317 53.7341ZM115.653 41.3955C115.429 41.1905 115.317 40.9252 115.317 40.6036C115.317 40.282 115.429 40.0368 115.653 39.8318C115.876 39.6268 116.154 39.5223 116.488 39.5223C116.821 39.5223 117.075 39.6248 117.293 39.8318C117.511 40.0368 117.618 40.2941 117.618 40.6036C117.618 40.9131 117.513 41.1885 117.303 41.3955C117.091 41.6005 116.819 41.705 116.488 41.705C116.156 41.705 115.876 41.6025 115.653 41.3955Z" fill="#FF5964"/>
<path d="M119.344 53.7341C119.293 53.6898 119.269 53.6336 119.269 53.5693C119.269 53.519 119.295 53.4527 119.344 53.3763C119.574 53.119 119.724 52.9301 119.796 52.8075C119.866 52.6849 119.912 52.5301 119.93 52.3452C119.95 52.1583 119.958 51.8146 119.958 51.3122V46.392C119.958 45.8775 119.948 45.5177 119.93 45.3107C119.91 45.1057 119.87 44.9449 119.806 44.8283C119.742 44.7117 119.608 44.5328 119.402 44.2876C119.312 44.1711 119.269 44.0887 119.269 44.0364C119.269 43.9198 119.352 43.8374 119.518 43.7852L120.649 43.3611C120.699 43.335 120.771 43.3229 120.861 43.3229C121.102 43.3229 121.224 43.4455 121.224 43.6887V44.6916C121.224 44.7439 121.24 44.776 121.272 44.7881C121.304 44.8002 121.332 44.7881 121.358 44.7499C122.201 43.7088 123.32 43.1862 124.714 43.1862C125.635 43.1862 126.434 43.4877 127.111 44.0927C127.788 44.6977 128.128 45.7066 128.128 47.1216V52.1965C128.128 52.5322 128.186 52.7432 128.302 52.8336C128.416 52.9241 128.634 52.9562 128.953 52.9301H129.011C129.139 52.9301 129.203 52.9824 129.203 53.0849C129.203 53.1612 129.165 53.2517 129.087 53.3542C128.985 53.4969 128.811 53.6235 128.57 53.7401C128.326 53.8567 128.078 53.9129 127.822 53.9129C127.439 53.9129 127.157 53.8044 126.979 53.5853C126.8 53.3663 126.704 53.0185 126.692 52.5442V47.1035C126.692 45.2001 125.899 44.2474 124.315 44.2474C123.815 44.2474 123.342 44.354 122.896 44.565C122.449 44.7781 122.087 45.0996 121.814 45.5297C121.538 45.9599 121.402 46.4844 121.402 47.1015V51.3081C121.39 51.7965 121.392 52.1342 121.412 52.3211C121.432 52.508 121.48 52.6628 121.556 52.7834C121.632 52.906 121.786 53.0949 122.015 53.3522C122.065 53.4286 122.091 53.4949 122.091 53.5451C122.091 53.6215 122.065 53.6838 122.015 53.728C121.963 53.7723 121.893 53.7964 121.804 53.7964H119.56C119.47 53.7964 119.4 53.7743 119.35 53.728L119.344 53.7341Z" fill="#FF5964"/>
<path d="M131.828 51.7744C131.189 51.3503 130.709 50.7875 130.39 50.0861C130.07 49.3846 129.91 48.637 129.91 47.8391C129.91 47.0411 130.082 46.2693 130.428 45.5619C130.773 44.8544 131.275 44.2876 131.934 43.8635C132.591 43.4394 133.362 43.2264 134.245 43.2264C135.024 43.2264 135.695 43.3751 136.259 43.6706C136.335 43.7088 136.387 43.6907 136.413 43.6123C136.63 42.9953 136.85 42.545 137.074 42.2616C137.298 41.9783 137.569 41.8376 137.889 41.8376C138.119 41.8376 138.304 41.918 138.444 42.0787C138.584 42.2395 138.656 42.4164 138.656 42.6094C138.656 42.8787 138.524 43.1239 138.262 43.343C138.001 43.562 137.607 43.7992 137.084 44.0565C136.994 44.0947 136.988 44.1469 137.064 44.2112C137.537 44.6233 137.899 45.1378 138.147 45.7548C138.396 46.3718 138.526 47.0411 138.54 47.7607C138.54 48.6088 138.344 49.4007 137.955 50.1343C137.565 50.8679 137.018 51.4408 136.315 51.8508C136.263 51.8769 136.241 51.903 136.247 51.9271C136.253 51.9533 136.283 51.9714 136.333 51.9854C137.126 52.1522 137.767 52.4356 138.26 52.8336C138.752 53.2316 139 53.728 139 54.3189C139 55.0264 138.746 55.6474 138.242 56.18C137.737 56.7127 137.066 57.1187 136.229 57.396C135.392 57.6734 134.499 57.8101 133.554 57.8101C132.403 57.8101 131.486 57.6171 130.801 57.2312C130.116 56.8453 129.774 56.2986 129.774 55.5911C129.774 55.1791 129.912 54.8093 130.186 54.4817C130.462 54.1541 130.777 53.8928 131.135 53.6999C131.492 53.5069 131.76 53.4104 131.94 53.4104C132.094 53.4104 132.17 53.4747 132.17 53.6034C132.17 53.6416 132.144 53.6898 132.094 53.7481C132.042 53.8064 131.986 53.8667 131.92 53.931C131.716 54.1239 131.546 54.3289 131.412 54.548C131.279 54.7671 131.211 55.0304 131.211 55.3399C131.211 55.8424 131.424 56.2403 131.852 56.5358C132.279 56.8312 132.897 56.98 133.704 56.98C134.828 56.98 135.717 56.7428 136.369 56.2665C137.02 55.7901 137.347 55.1791 137.347 54.4335C137.347 53.7642 137.04 53.2657 136.427 52.9381C135.813 52.6105 135.038 52.4336 134.105 52.4075C133.222 52.4075 132.463 52.1945 131.824 51.7704L131.828 51.7744ZM136.219 50.472C136.704 49.7324 136.948 48.836 136.948 47.7808C136.948 46.7256 136.714 45.793 136.249 45.0996C135.783 44.4062 135.114 44.0585 134.245 44.0585C133.376 44.0585 132.653 44.4102 132.194 45.1096C131.734 45.8111 131.502 46.7216 131.502 47.8391C131.502 48.8802 131.73 49.7645 132.184 50.4921C132.637 51.2197 133.292 51.5814 134.149 51.5814C135.006 51.5814 135.735 51.2116 136.221 50.472H136.219Z" fill="#FF5964"/>
</svg>
