<svg width="198" height="89" viewBox="0 0 198 89" fill="none" xmlns="http://www.w3.org/2000/svg">
<g clip-path="url(#clip0_748_2431)">
<path d="M47.0837 62.7552V77.0529H42.5625V41.7729H54.5727C57.6332 41.7729 60.2068 42.7942 62.3399 44.8367C64.4961 46.8793 65.5859 49.3628 65.5859 52.2873C65.5859 55.2118 64.4961 57.765 62.3399 59.7843C60.23 61.7804 57.6564 62.8017 54.5727 62.8017H47.0837V62.7552ZM47.0837 46.1133V58.4381H54.6654C56.4739 58.4381 57.9578 57.8346 59.1403 56.6045C60.3459 55.3975 60.9719 53.9353 60.9719 52.2641C60.9719 50.5929 60.3691 49.2003 59.1403 47.9702C57.9578 46.7168 56.4739 46.0901 54.6654 46.0901H47.0837V46.1133Z" fill="#777677"/>
<path d="M77.6901 52.1243C81.0288 52.1243 83.672 53.0295 85.6196 54.8167C87.544 56.6039 88.5178 59.0642 88.5178 62.1744V77.0524H84.1821V73.7101H83.9966C82.1186 76.4721 79.6377 77.8415 76.5076 77.8415C73.8413 77.8415 71.6155 77.0524 69.8302 75.474C68.0449 73.8957 67.1406 71.9228 67.1406 69.5554C67.1406 67.0486 68.0912 65.0757 69.9693 63.5903C71.8473 62.1048 74.3746 61.3621 77.5278 61.3621C80.2173 61.3621 82.4432 61.8495 84.1821 62.8475V61.8031C84.1821 60.2247 83.5561 58.8785 82.3041 57.7876C81.052 56.6968 79.5913 56.1397 77.922 56.1397C75.3947 56.1397 73.4008 57.2074 71.9169 59.3427L67.9289 56.836C70.1316 53.6794 73.3776 52.1011 77.6669 52.1011L77.6901 52.1243ZM71.8473 69.6482C71.8473 70.8319 72.3574 71.8068 73.3544 72.5959C74.3514 73.3851 75.5338 73.7797 76.8786 73.7797C78.7798 73.7797 80.4724 73.0834 81.9795 71.6675C83.4633 70.2517 84.2285 68.6037 84.2285 66.7005C82.8141 65.5864 80.8434 65.0293 78.3161 65.0293C76.4845 65.0293 74.9542 65.4703 73.7022 66.3523C72.4733 67.2343 71.8473 68.3484 71.8473 69.6482Z" fill="#777677"/>
<path d="M93.6406 52.9134H97.9764V56.8592H98.1618C99.5066 53.7722 102.289 52.2171 106.485 52.2171L107.413 52.31V57.0449L105.396 56.8592C103.286 56.8592 101.57 57.5091 100.202 58.8089C98.8342 60.1087 98.1618 61.7566 98.1618 63.7527V77.0523H93.6406V52.9134ZM121.904 77.4469C119.933 77.4469 118.31 76.8435 117.012 75.6133C115.713 74.4064 115.041 72.712 115.018 70.5302V57.0217H110.775V52.8902H115.018V45.5093H119.539V52.8902H125.451V57.0217H119.539V69.0447C119.539 70.6463 119.84 71.7371 120.466 72.3174C121.092 72.8977 121.788 73.1762 122.576 73.1762C122.947 73.1762 123.295 73.1298 123.643 73.0601C123.991 72.9673 124.315 72.8745 124.594 72.7352L126.031 76.7738C124.849 77.1916 123.481 77.4237 121.904 77.4237V77.4469Z" fill="#777677"/>
<path d="M130.02 52.9142H134.355V56.2565H134.541C135.236 55.0727 136.28 54.0979 137.717 53.3087C139.155 52.5196 140.639 52.125 142.169 52.125C145.113 52.125 147.386 52.9606 148.985 54.6549C150.585 56.3493 151.374 58.7632 151.374 61.8734V77.0531H146.852V62.1751C146.76 58.2294 144.766 56.2565 140.894 56.2565C139.085 56.2565 137.578 56.9992 136.372 58.4383C135.167 59.9005 134.541 61.6413 134.541 63.6838V77.0299H130.02V52.8909V52.9142Z" fill="#777677"/>
<path d="M167.535 77.8422C163.988 77.8422 161.066 76.6353 158.771 74.1982C156.476 71.7611 155.316 68.6973 155.316 64.9836C155.316 61.2699 156.429 58.2526 158.655 55.7923C160.881 53.3552 163.733 52.125 167.211 52.125C170.689 52.125 173.633 53.2855 175.743 55.6066C177.853 57.9276 178.919 61.1771 178.919 65.3318L178.873 65.8192H159.93C160 68.1867 160.788 70.0899 162.295 71.529C163.802 72.968 165.611 73.6876 167.721 73.6876C170.619 73.6876 172.868 72.2485 174.514 69.3472L178.548 71.3201C177.459 73.3626 175.975 74.9409 174.05 76.1014C172.126 77.262 169.947 77.819 167.535 77.819V77.8422ZM160.301 62.0591H174.143C174.004 60.3879 173.332 58.9953 172.103 57.9044C170.874 56.8135 169.228 56.2565 167.164 56.2565C165.449 56.2565 163.988 56.7903 162.759 57.8348C161.53 58.8793 160.719 60.2951 160.325 62.0823L160.301 62.0591Z" fill="#777677"/>
<path d="M187.611 77.0527H183.09V52.9138H187.426V56.8596H187.611C188.075 55.583 189.025 54.4921 190.44 53.5869C191.877 52.6817 193.268 52.2407 194.659 52.2407C196.051 52.2407 197.094 52.4264 197.998 52.821L196.63 57.2078C196.074 56.9757 195.193 56.8596 193.964 56.8596C192.248 56.8596 190.764 57.5559 189.512 58.9253C188.237 60.2948 187.611 61.9195 187.611 63.7531V77.0527Z" fill="#777677"/>
<path d="M52.8097 21.1389V24.2259H60.1596C59.9277 26.1756 59.1162 27.6843 57.7482 28.752C56.4035 29.8197 54.7573 30.3535 52.8097 30.3535C50.5375 30.3535 48.6363 29.5643 47.0828 27.9628C45.5294 26.3845 44.7411 24.458 44.7411 22.1602C44.7411 19.8623 45.5294 17.9359 47.0828 16.3576C48.6363 14.756 50.5607 13.9669 52.8097 13.9669C54.9428 13.9669 56.7744 14.7096 58.3511 16.1719L60.5305 13.9901C58.3511 11.9244 55.7775 10.8799 52.8097 10.8799C50.7925 10.8799 48.8913 11.3905 47.106 12.4118C45.3207 13.4098 43.9296 14.8025 42.9094 16.5665C41.9124 18.284 41.4023 20.1409 41.4023 22.137C41.4023 24.1331 41.9124 26.0131 42.9094 27.7539C43.9064 29.4947 45.3207 30.8641 47.106 31.8854C48.8913 32.9066 50.7925 33.4173 52.8097 33.4173C55.847 33.4173 58.3743 32.4657 60.3682 30.5624C62.339 28.6823 63.336 26.1756 63.336 23.0654C63.336 22.3227 63.2896 21.696 63.1737 21.1389H52.8329H52.8097Z" fill="#487CBF"/>
<path d="M71.6826 18.9106C69.6191 18.9106 67.8802 19.607 66.4891 20.9996C65.0979 22.369 64.4023 24.0866 64.4023 26.1755C64.4023 28.2645 65.0979 29.9356 66.5122 31.3515C67.9034 32.7441 69.6191 33.4404 71.6826 33.4404C73.7462 33.4404 75.4619 32.7441 76.8531 31.3515C78.2674 29.9356 78.9629 28.2181 78.9629 26.1755C78.9629 24.133 78.2674 22.3922 76.8531 20.9996C75.4619 19.607 73.7462 18.9106 71.6826 18.9106ZM74.5809 29.3089C73.7925 30.1445 72.8419 30.5623 71.7058 30.5623C70.5697 30.5623 69.5727 30.1445 68.7844 29.3089C67.9961 28.4734 67.602 27.4289 67.602 26.1755C67.602 24.9222 67.9961 23.8545 68.7844 23.0421C69.5727 22.2065 70.5465 21.7887 71.7058 21.7887C72.8651 21.7887 73.8389 22.2065 74.6272 23.0421C75.4155 23.8545 75.8097 24.899 75.8097 26.1755C75.8097 27.4521 75.4155 28.4502 74.604 29.3089H74.5809Z" fill="#EF372C"/>
<path d="M115.411 11.6689H112.234V32.9994H115.411V11.6689Z" fill="#00AC4E"/>
<path d="M87.5655 18.9106C85.5019 18.9106 83.763 19.607 82.3719 20.9996C80.9807 22.369 80.2852 24.0866 80.2852 26.1755C80.2852 28.2645 80.9807 29.9356 82.3951 31.3515C83.7862 32.7441 85.5019 33.4404 87.5655 33.4404C89.629 33.4404 91.3447 32.7441 92.7359 31.3515C94.1502 29.9356 94.8458 28.2181 94.8458 26.1755C94.8458 24.133 94.1502 22.3922 92.7359 20.9996C91.3447 19.607 89.629 18.9106 87.5655 18.9106ZM90.4405 29.3089C89.6522 30.1445 88.7016 30.5623 87.5655 30.5623C86.4294 30.5623 85.4324 30.1445 84.6441 29.3089C83.8558 28.4734 83.4616 27.4289 83.4616 26.1755C83.4616 24.9222 83.8558 23.8545 84.6441 23.0421C85.4324 22.2065 86.4062 21.7887 87.5655 21.7887C88.7247 21.7887 89.6985 22.2065 90.4869 23.0421C91.2752 23.8545 91.6693 24.899 91.6693 26.1755C91.6693 27.4521 91.2752 28.4502 90.4637 29.3089H90.4405Z" fill="#FDB614"/>
<path d="M124.152 30.5621C122.552 30.5621 121.393 29.8194 120.628 28.3571L130.32 24.3417L129.995 23.5061C129.74 22.833 129.415 22.2063 128.998 21.626C128.581 21.069 128.117 20.5584 127.584 20.1638C127.05 19.746 126.471 19.4443 125.822 19.2122C125.172 19.0033 124.5 18.8872 123.781 18.8872C121.834 18.8872 120.211 19.5835 118.889 20.9529C117.591 22.3456 116.941 24.0864 116.941 26.1521C116.941 28.2178 117.637 29.9354 119.005 31.328C120.373 32.7207 122.089 33.417 124.129 33.417C126.703 33.417 128.697 32.3493 130.157 30.1907L127.676 28.5428C126.772 29.889 125.59 30.5389 124.106 30.5389L124.152 30.5621ZM121.231 22.9258C122.042 22.1135 122.923 21.7189 123.92 21.7189C124.546 21.7189 125.103 21.8582 125.59 22.1367C126.077 22.4152 126.424 22.7866 126.61 23.2508L120.141 25.9432C120.095 24.713 120.466 23.715 121.231 22.9258Z" fill="#EF372C"/>
<path d="M107.018 20.5354H106.902C105.998 19.4445 104.723 18.9106 103.077 18.9106C101.199 18.9106 99.5758 19.6302 98.1846 21.046C96.8167 22.4851 96.1211 24.1794 96.1211 26.1755C96.1211 28.1716 96.8167 29.866 98.1846 31.2818C99.599 32.6977 101.222 33.394 103.077 33.394C104.7 33.394 105.975 32.8369 106.902 31.7461H107.018V32.4888C107.018 35.5294 105.72 37.0613 103.146 37.0613C102.312 37.0613 101.593 36.8292 100.944 36.3417C100.295 35.8543 99.8076 35.2508 99.483 34.4617L96.7007 35.6222C96.979 36.2721 97.3268 36.8524 97.7441 37.363C98.1614 37.8968 98.6483 38.3378 99.2048 38.7092C99.7612 39.0806 100.364 39.3823 101.036 39.5912C101.686 39.8001 102.381 39.9162 103.123 39.9162C105.279 39.9162 106.972 39.2663 108.178 37.9433C109.383 36.6435 110.009 34.7634 110.009 32.3495V19.3284H106.995V20.5122L107.018 20.5354ZM106.114 29.3322C105.372 30.1677 104.445 30.5623 103.378 30.5623C102.242 30.5623 101.292 30.1445 100.503 29.3089C99.7381 28.4734 99.3439 27.4289 99.3439 26.1987C99.3439 24.9686 99.7381 23.9009 100.526 23.0653C101.338 22.2065 102.288 21.7655 103.378 21.7655C104.468 21.7655 105.395 22.1833 106.114 23.0189C106.856 23.8777 107.25 24.9454 107.25 26.1755C107.25 27.4057 106.879 28.4502 106.114 29.3089V29.3322Z" fill="#487CBF"/>
<path d="M23.757 0.76001H0.664062V88.635H23.757V0.76001Z" fill="#487CBF"/>
</g>
<defs>
<clipPath id="clip0_748_2431">
<rect width="197.333" height="87.8751" fill="white" transform="translate(0.664062 0.76001)"/>
</clipPath>
</defs>
</svg>
