<svg width="108" height="133" viewBox="0 0 108 133" fill="none" xmlns="http://www.w3.org/2000/svg">
<g clip-path="url(#clip0_748_2450)">
<path d="M37.1295 12.0705C38.1482 9.40858 39.5489 6.95789 41.6288 4.97198C49.9482 -3.09841 63.7007 -1.07025 69.346 9.07056C73.5906 16.7607 78.0899 24.2818 82.4618 31.8874C89.7625 44.5211 97.1481 57.1549 104.364 69.8309C110.434 80.4365 103.855 93.8308 91.7999 95.6477C84.4143 96.7463 77.4956 93.366 73.6755 86.7745C67.2662 75.6618 60.8144 64.5492 54.405 53.4788C54.2777 53.2253 54.1079 53.014 53.9381 52.8028C53.259 52.2535 52.9618 51.4507 52.5374 50.7324C49.6935 45.7465 46.7647 40.8028 43.9209 35.8592C42.0957 32.6479 40.1856 29.4789 38.3604 26.2677C36.705 23.3944 35.941 20.2677 36.0259 16.9719C36.1532 15.2818 36.3655 13.5917 37.1295 12.0705Z" fill="#3C8BD9"/>
<path d="M37.1262 12.0706C36.7442 13.5917 36.4046 15.1128 36.3197 16.7184C36.1924 20.2677 37.0837 23.5635 38.8665 26.648C43.5355 34.6338 48.2046 42.662 52.8312 50.6901C53.2557 51.4084 53.5952 52.1267 54.0197 52.8028C51.4729 57.1971 48.9262 61.5492 46.337 65.9436C42.7715 72.0703 39.206 78.2393 35.5981 84.366C35.4283 84.366 35.3859 84.2815 35.3435 84.1548C35.301 83.8167 35.4283 83.521 35.5132 83.1829C37.2535 76.8449 35.8104 71.2253 31.4384 66.4084C28.7643 63.4929 25.3686 61.845 21.4636 61.2957C16.3701 60.5774 11.8708 61.8873 7.83844 65.0563C7.11685 65.6056 6.64995 66.4084 5.80103 66.8309C5.63124 66.8309 5.54635 66.7464 5.50391 66.6196C7.54131 63.1126 9.53628 59.6056 11.5737 56.0985C19.978 41.5634 28.3823 27.0282 36.8291 12.5353C36.914 12.3663 37.0413 12.2396 37.1262 12.0706Z" fill="#FABC04"/>
<path d="M5.67516 66.7465C6.48164 66.0282 7.24567 65.2676 8.09459 64.5916C18.409 56.4789 33.9018 62.3522 36.1514 75.1972C36.7032 78.2817 36.4061 81.2394 35.4723 84.1971C35.4298 84.4507 35.3874 84.6619 35.3025 84.9154C34.9205 85.5915 34.5809 86.3098 34.1564 86.9859C30.3787 93.1971 24.8183 96.2816 17.5176 95.8168C9.15574 95.2253 2.57661 88.9718 1.43056 80.6901C0.878765 76.676 1.68524 72.9155 3.76509 69.4507C4.18955 68.6902 4.69891 68.0141 5.16581 67.2535C5.37804 67.0845 5.29315 66.7465 5.67516 66.7465Z" fill="#34A852"/>
<path d="M5.67272 66.7462C5.50294 66.9152 5.50294 67.2109 5.20582 67.2532C5.16337 66.9574 5.33315 66.7884 5.50294 66.5771L5.67272 66.7462Z" fill="#FABC04"/>
<path d="M35.3008 84.9151C35.131 84.6193 35.3008 84.408 35.4706 84.1968C35.513 84.239 35.5979 84.3235 35.6404 84.3658L35.3008 84.9151Z" fill="#E1C025"/>
<path d="M9.45039 110.014C4.65399 110.014 0.664062 113.859 0.664062 118.591C0.664062 123.323 4.65399 127.126 9.45039 127.126C12.0396 127.126 13.9497 126.281 15.4777 124.718C17.0482 123.154 17.5151 121 17.5151 119.267C17.5151 118.718 17.4727 118.211 17.3878 117.788H9.45039V120.112H15.0957C14.9259 121.422 14.5015 122.394 13.8223 123.07C13.0159 123.873 11.7 124.802 9.45039 124.802C5.96981 124.802 3.25327 122.014 3.25327 118.591C3.25327 115.169 5.96981 112.38 9.45039 112.38C11.318 112.38 12.7187 113.098 13.695 114.07L15.3504 112.422C13.9497 111.07 12.082 110.014 9.45039 110.014ZM23.8396 116.14C20.8259 116.14 18.3216 118.464 18.3216 121.718C18.3216 124.971 20.7835 127.295 23.8396 127.295C26.8957 127.295 29.3576 124.929 29.3576 121.718C29.3576 118.507 26.8532 116.14 23.8396 116.14ZM23.8396 125.098C22.1842 125.098 20.741 123.704 20.741 121.718C20.741 119.732 22.1842 118.338 23.8396 118.338C25.495 118.338 26.9381 119.69 26.9381 121.718C26.9381 123.704 25.495 125.098 23.8396 125.098ZM35.8094 116.14C32.7532 116.14 30.2914 118.464 30.2914 121.718C30.2914 124.971 32.7532 127.295 35.8094 127.295C38.8655 127.295 41.3273 124.929 41.3273 121.718C41.3273 118.507 38.8655 116.14 35.8094 116.14ZM35.8094 125.098C34.154 125.098 32.7108 123.704 32.7108 121.718C32.7108 119.732 34.154 118.338 35.8094 118.338C37.4648 118.338 38.9079 119.69 38.9079 121.718C38.9079 123.704 37.5072 125.098 35.8094 125.098ZM47.7367 116.14C44.9777 116.14 42.4734 118.549 42.4734 121.676C42.4734 124.802 44.9777 127.169 47.7367 127.169C49.0525 127.169 50.0712 126.577 50.623 125.901H50.7079V126.704C50.7079 128.816 49.6043 129.957 47.7791 129.957C46.2935 129.957 45.4022 128.901 45.0201 128.014L42.8978 128.901C43.4921 130.38 45.105 132.154 47.7791 132.154C50.623 132.154 53 130.464 53 126.408V116.521H50.7079V117.408H50.623C50.0712 116.732 49.0525 116.14 47.7367 116.14ZM47.9489 125.014C46.2935 125.014 44.8928 123.619 44.8928 121.676C44.8928 119.732 46.2935 118.295 47.9489 118.295C49.6043 118.295 50.8777 119.732 50.8777 121.676C50.8777 123.619 49.6043 125.014 47.9489 125.014ZM54.7827 110.69H57.2021V127H54.7827V110.69ZM63.6964 116.14C60.8101 116.14 58.3906 118.38 58.3906 121.718C58.3906 124.845 60.7676 127.295 63.9511 127.295C66.5403 127.295 68.0259 125.732 68.6201 124.845L66.7101 123.577C66.0734 124.507 65.182 125.098 63.9511 125.098C62.7201 125.098 61.7863 124.549 61.2345 123.408L68.7475 120.323L68.4928 119.69C68.0259 118.464 66.5827 116.14 63.6964 116.14ZM60.8101 121.549C60.7252 119.394 62.5079 118.295 63.7388 118.295C64.7151 118.295 65.564 118.76 65.8187 119.478L60.8101 121.549Z" fill="#757575"/>
<path d="M72.9961 126.746L78.599 111.915H80.7637L86.3666 126.746H84.2443L82.8011 122.732H76.5616L75.1184 126.746H72.9961ZM77.1983 120.957H82.1644L79.745 114.281H79.6601L77.1983 120.957Z" fill="#757575"/>
<path d="M88.3148 125.521C87.381 124.464 86.9141 123.197 86.9141 121.676C86.9141 120.154 87.381 118.929 88.3148 117.831C89.291 116.774 90.3946 116.267 91.7529 116.267C92.5169 116.267 93.1961 116.436 93.7903 116.732C94.427 117.07 94.8939 117.45 95.2335 118H95.3184L95.2335 116.605V111.915H97.1436V126.746H95.3184V125.352H95.2335C94.8939 125.859 94.427 126.281 93.7903 126.619C93.1536 126.957 92.4745 127.084 91.7529 127.084C90.3946 127.084 89.2486 126.577 88.3148 125.521ZM94.3421 124.338C94.9788 123.661 95.2759 122.774 95.2759 121.676C95.2759 120.577 94.9788 119.732 94.3421 119.056C93.7479 118.38 92.9838 118.042 92.05 118.042C91.1162 118.042 90.3522 118.38 89.7579 119.056C89.1213 119.732 88.8241 120.619 88.8241 121.676C88.8241 122.732 89.1213 123.619 89.7579 124.295C90.3946 124.971 91.1587 125.309 92.05 125.309C92.9838 125.352 93.7479 125.014 94.3421 124.338Z" fill="#757575"/>
<path d="M105.977 126.154C105.212 126.746 104.236 127.084 103.048 127.084C102.029 127.084 101.138 126.83 100.331 126.281C99.5672 125.732 99.0153 125.056 98.6758 124.168L100.374 123.45C100.628 124.042 100.968 124.549 101.477 124.887C101.944 125.225 102.496 125.394 103.048 125.394C103.642 125.394 104.151 125.267 104.576 125.014C105 124.76 105.17 124.422 105.17 124.084C105.17 123.45 104.661 122.943 103.684 122.647L101.944 122.225C99.9492 121.718 98.9729 120.788 98.9729 119.352C98.9729 118.422 99.3549 117.704 100.119 117.112C100.883 116.563 101.859 116.267 103.005 116.267C103.897 116.267 104.703 116.478 105.467 116.901C106.189 117.323 106.698 117.915 106.995 118.633L105.297 119.352C105.085 118.929 104.788 118.591 104.364 118.338C103.939 118.084 103.43 117.957 102.878 117.957C102.369 117.957 101.944 118.084 101.52 118.338C101.138 118.591 100.925 118.887 100.925 119.267C100.925 119.859 101.477 120.281 102.581 120.492L104.109 120.873C106.146 121.38 107.123 122.394 107.123 123.915C107.165 124.802 106.741 125.563 105.977 126.154Z" fill="#757575"/>
</g>
<defs>
<clipPath id="clip0_748_2450">
<rect width="106.459" height="132.156" fill="white" transform="translate(0.664062 -0.00146484)"/>
</clipPath>
</defs>
</svg>
